HIERARCHY
ROOT Hips
{
	OFFSET 0.000000 0.000000 0.000000
	CHANNELS 6 Xposition Yposition Zposition Xrotation Yrotation Zrotation
	JOINT LeftUpLeg_virtual
	{
		OFFSET 0.000000 0.000000 0.000000
		CHANNELS 3 Xrotation Yrotation Zrotation
		JOINT LeftUpLeg
		{
			OFFSET 15.427100 -6.655098 0.678600
			CHANNELS 3 Xrotation Yrotation Zrotation
			JOINT LeftLeg
			{
				OFFSET 4.081073 -39.591068 13.024000
				CHANNELS 3 Xrotation Yrotation Zrotation
				JOINT LeftFoot
				{
					OFFSET -4.081074 -37.707932 -15.979700
					CHANNELS 3 Xrotation Yrotation Zrotation
					JOINT LeftToeBase
					{
						OFFSET 5.346399 -15.068900 20.645000
						CHANNELS 3 Xrotation Yrotation Zrotation
						JOINT LeftToe_End
						{
							OFFSET 2.754700 0.931300 11.300900
							CHANNELS 3 Xrotation Yrotation Zrotation
							End Site
							{
								OFFSET 0 0 0
							}
						}
					}
				}
			}
		}
	}
	JOINT RightUpLeg_virtual
	{
		OFFSET 0.000000 0.000000 0.000000
		CHANNELS 3 Xrotation Yrotation Zrotation
		JOINT RightUpLeg
		{
			OFFSET -15.569500 -6.655098 0.678600
			CHANNELS 3 Xrotation Yrotation Zrotation
			JOINT RightLeg
			{
				OFFSET -4.081825 -39.591045 13.023800
				CHANNELS 3 Xrotation Yrotation Zrotation
				JOINT RightFoot
				{
					OFFSET 4.081824 -37.707954 -15.979600
					CHANNELS 3 Xrotation Yrotation Zrotation
					JOINT RightToeBase
					{
						OFFSET -5.346400 -15.068900 20.645000
						CHANNELS 3 Xrotation Yrotation Zrotation
						JOINT RightToe_End
						{
							OFFSET -2.754700 0.931300 11.300900
							CHANNELS 3 Xrotation Yrotation Zrotation
							End Site
							{
								OFFSET 0 0 0
							}
						}
					}
				}
			}
		}
	}
	JOINT Spine_virtual
	{
		OFFSET 0.000000 0.000000 0.000000
		CHANNELS 3 Xrotation Yrotation Zrotation
		JOINT Spine
		{
			OFFSET -0.279200 12.230698 -2.892100
			CHANNELS 3 Xrotation Yrotation Zrotation
			JOINT Spine1
			{
				OFFSET -0.232667 10.192268 -1.242267
				CHANNELS 3 Xrotation Yrotation Zrotation
				JOINT Spine1_split
				{
					OFFSET -0.232667 10.192268 -1.242267
					CHANNELS 3 Xrotation Yrotation Zrotation
					JOINT Spine2
					{
						OFFSET -0.232667 10.192268 -1.242267
						CHANNELS 3 Xrotation Yrotation Zrotation
						JOINT Neck_virtual
						{
							OFFSET 0.000000 0.000000 0.000000
							CHANNELS 3 Xrotation Yrotation Zrotation
							JOINT Neck
							{
								OFFSET -0.418800 17.814194 8.416900
								CHANNELS 3 Xrotation Yrotation Zrotation
								JOINT Head
								{
									OFFSET 0.000000 7.031097 3.806800
									CHANNELS 3 Xrotation Yrotation Zrotation
									JOINT HeadTop_End
									{
										OFFSET 0.000000 24.646606 12.978600
										CHANNELS 3 Xrotation Yrotation Zrotation
										End Site
										{
											OFFSET 0 0 0
										}
									}
								}
							}
						}
						JOINT LeftShoulder_virtual
						{
							OFFSET 0.000000 0.000000 0.000000
							CHANNELS 3 Xrotation Yrotation Zrotation
							JOINT LeftShoulder
							{
								OFFSET 8.476499 7.247704 -3.868750
								CHANNELS 3 Xrotation Yrotation Zrotation
								JOINT LeftShoulder_split
								{
									OFFSET 8.476499 7.247704 -3.868750
									CHANNELS 3 Xrotation Yrotation Zrotation
									JOINT LeftArm
									{
										OFFSET 9.308998 -2.777710 0.208600
										CHANNELS 3 Xrotation Yrotation Zrotation
										JOINT LeftForeArm
										{
											OFFSET 29.972298 0.000000 0.000000
											CHANNELS 3 Xrotation Yrotation Zrotation
											JOINT LeftHand
											{
												OFFSET 26.026505 0.000000 0.000000
												CHANNELS 3 Xrotation Yrotation Zrotation
												End Site
												{
													OFFSET 0 0 0
												}
											}
										}
									}
								}
							}
						}
						JOINT RightShoulder_virtual
						{
							OFFSET 0.000000 0.000000 0.000000
							CHANNELS 3 Xrotation Yrotation Zrotation
							JOINT RightShoulder
							{
								OFFSET -7.570500 7.247704 -3.868750
								CHANNELS 3 Xrotation Yrotation Zrotation
								JOINT RightShoulder_split
								{
									OFFSET -7.570500 7.247704 -3.868750
									CHANNELS 3 Xrotation Yrotation Zrotation
									JOINT RightArm
									{
										OFFSET -9.308998 -2.777710 0.208500
										CHANNELS 3 Xrotation Yrotation Zrotation
										JOINT RightForeArm
										{
											OFFSET -29.972300 0.000000 0.000000
											CHANNELS 3 Xrotation Yrotation Zrotation
											JOINT RightHand
											{
												OFFSET -26.026505 0.000000 0.000000
												CHANNELS 3 Xrotation Yrotation Zrotation
												End Site
												{
													OFFSET 0 0 0
												}
											}
										}
									}
								}
							}
						}
					}
				}
			}
		}
	}
}
MOTION
Frames: 5
Frame Time: 0.03333333
2.708227 94.104088 -3.929195 0.000000 0.000000 0.000000 -0.389868 -13.813641 -0.479246 -17.682969 19.614013 18.764099 25.033227 12.504024 -0.486903 3.679682 0.298391 -6.067625 -4.031198 0.854907 -0.928652 0.000000 0.000000 0.000000 0.326693 -12.892061 -0.975817 -3.350141 -2.527788 1.768266 21.139089 3.362951 5.314452 -11.184750 0.516301 -2.882569 2.614286 -0.413678 2.737301 0.000000 0.000000 0.000000 -1.618707 -16.947084 -1.834407 3.216056 -0.621391 0.070396 0.586029 -0.252058 3.159382 -0.287306 1.956038 -0.217859 0.000000 0.000000 0.000000 0.677294 -1.600319 2.747265 4.336666 -7.080817 -2.336829 5.691783 20.751701 -9.095803 0.000000 0.000000 0.000000 0.091071 -1.278223 2.918189 4.722031 7.020627 2.525861 5.238517 6.866257 -2.886091 -6.230623 -40.625221 -68.136335 -13.039244 -26.258003 -2.751930 0.000000 0.000000 0.000000 0.394269 -0.942243 3.354720 -1.737841 -1.746380 3.046332 -1.485251 3.968471 1.308745 7.361565 8.053556 77.692261 -6.116597 28.236530 5.322407 0.000000 0.000000 0.000000 
3.021719 93.233032 -4.405781 0.000000 0.000000 0.000000 -0.278486 -13.673769 -0.869288 -18.176262 20.268101 19.535393 24.750075 11.986296 -1.049272 2.534403 0.074604 -5.336071 -2.826044 0.728005 -1.084112 0.000000 0.000000 0.000000 0.468914 -13.472923 -1.219860 -4.517034 -2.520445 1.707662 19.316303 3.601617 6.123424 -9.167264 1.594305 -1.819357 -0.677104 -0.473124 2.482653 0.000000 0.000000 0.000000 -1.649207 -17.971208 -2.334866 4.146809 -0.893701 0.177551 0.982677 -0.456561 3.132465 0.518855 1.522998 0.001852 0.000000 0.000000 0.000000 1.240637 -1.612341 2.741591 3.430306 -6.655270 -2.028589 4.633476 20.730635 -9.039866 0.000000 0.000000 0.000000 0.453262 -1.281873 2.841920 4.966210 6.939894 3.101670 5.593870 5.829303 -0.850834 -4.388818 -40.649898 -68.448160 -11.106667 -24.991133 -2.429589 0.000000 0.000000 0.000000 0.796387 -1.008410 3.344228 -1.534649 -1.182882 2.898473 -1.440146 5.893616 0.269340 6.483029 9.007360 76.735297 -4.730772 26.551809 4.295930 0.000000 0.000000 0.000000 
3.253329 92.283722 -4.666500 0.000000 0.000000 0.000000 -0.329605 -14.976336 -1.998438 -20.370903 22.652536 22.385615 25.354111 10.283394 -1.892908 1.536492 -0.405128 -6.677127 -2.165119 0.643135 -1.555044 0.000000 0.000000 0.000000 0.231296 -15.601170 -2.268172 -6.489954 -3.347295 1.475119 17.970798 4.425777 7.513748 -5.563346 4.023012 0.378027 -3.144548 -0.266956 1.458852 0.000000 0.000000 0.000000 -1.811176 -20.028731 -3.310168 5.698700 -1.389290 0.458474 1.600163 -0.781140 2.804315 0.775848 1.448791 -0.104855 0.000000 0.000000 0.000000 1.994995 -1.734979 2.482388 1.958682 -5.834617 -2.024029 2.015985 21.921822 -9.157144 0.000000 0.000000 0.000000 1.218402 -1.373259 2.337645 5.651805 6.324657 4.199147 5.679446 5.654562 1.541989 1.115552 -42.173474 -66.636630 -11.845671 -29.722490 -4.146954 0.000000 0.000000 0.000000 1.722918 -1.157448 2.971107 -1.176549 -0.433270 2.538995 -0.856784 6.403453 -0.795728 4.270480 11.806987 75.358310 -2.808262 25.313951 3.251222 0.000000 0.000000 0.000000 
3.403707 91.614624 -4.774723 0.000000 0.000000 0.000000 -0.475538 -17.845462 -3.498992 -23.884794 26.619496 27.014243 26.326969 8.046379 -2.892809 0.940569 -0.811955 -9.224177 -3.876347 0.556175 -1.351879 0.000000 0.000000 0.000000 -0.105806 -18.934102 -3.871973 -8.786371 -4.766200 1.000233 17.460849 5.417921 8.911100 -2.236719 7.100065 3.006020 -3.878306 0.154039 0.046064 0.000000 0.000000 0.000000 -1.769910 -22.775177 -4.558058 7.434533 -2.016806 0.801536 2.345574 -1.172928 2.277974 0.535784 1.548199 -0.387102 0.000000 0.000000 0.000000 2.919874 -1.961689 2.053225 0.232606 -4.649681 -2.236123 -1.522272 23.927691 -9.234852 0.000000 0.000000 0.000000 2.182751 -1.554573 1.580162 6.673818 5.748099 6.081136 5.532601 5.391827 3.278863 10.558415 -44.234986 -62.651194 -16.341057 -41.252294 -9.050582 0.000000 0.000000 0.000000 2.951603 -1.389820 2.367458 -0.719044 0.293656 2.137936 0.005818 5.266272 -1.724151 1.194114 15.196392 73.853804 -0.913801 26.034733 2.497918 0.000000 0.000000 0.000000 
3.466549 91.149162 -4.469776 0.000000 0.000000 0.000000 -0.677026 -21.862729 -5.035963 -27.993833 31.588184 32.646293 27.657243 6.012537 -3.773038 0.285926 -0.263127 -11.231784 -6.406738 0.373666 -0.661922 0.000000 0.000000 0.000000 -0.478884 -22.987389 -5.633672 -10.624318 -6.414925 0.204762 17.932015 5.884798 9.543918 -0.867419 9.144980 4.665102 -3.579950 0.566172 -1.157872 0.000000 0.000000 0.000000 -1.452341 -26.011160 -5.798932 8.928079 -2.657076 1.077557 3.132722 -1.603555 1.684829 0.179753 1.918778 -0.771917 0.000000 0.000000 0.000000 3.854192 -2.241598 1.585410 -1.207208 -3.268524 -2.369790 -5.097981 26.447763 -9.194258 0.000000 0.000000 0.000000 3.167540 -1.762467 0.794638 7.981334 5.617445 8.570378 4.971108 4.234832 4.264299 23.534950 -45.399298 -57.311708 -29.094068 -57.830652 -22.025757 0.000000 0.000000 0.000000 4.257173 -1.669012 1.697213 -0.144985 0.950940 1.787250 0.810190 3.163730 -2.611802 -1.967668 17.812363 72.294486 0.504013 30.163331 2.164480 0.000000 0.000000 0.000000 
